<svg id="Layer_1" data-name="Layer 1" xmlns="http://www.w3.org/2000/svg" viewBox="0 0 126.84 181.47"><defs><style>.cls-1,.cls-2{fill:#fff;}.cls-1,.cls-2,.cls-3{stroke:#231f20;stroke-miterlimit:10;}.cls-1{stroke-width:0.5px;}.cls-3{fill:none;}.cls-4{fill:#231f20;}</style></defs><circle class="cls-1" cx="62.11" cy="62.11" r="61.86"/><path class="cls-2" d="M84.61,98.56c-.47-11.43-7.88-19.48-9.51-27.37-.69-3.33.21-4,.21-7.64a16.82,16.82,0,1,0-33.64,0c0,6.81,7.17,6.79,8.84,13s-4.94,15.29-4.6,23.66c.65,15.55,9.84,27.8,20.52,27.35S85.26,114.11,84.61,98.56Z" transform="translate(-10.83 -9.09)"/><path class="cls-3" d="M54.49,122.28c-43.41,31.17-23.75,22.1-23.75,56.32" transform="translate(-10.83 -9.09)"/><line class="cls-3" x1="68.38" y1="110.47" x2="79.38" y2="121.52"/><ellipse class="cls-3" cx="25.12" cy="184.45" rx="8.5" ry="2.72" transform="translate(-117.87 44.27) rotate(-37.48)"/><path class="cls-3" d="M47.35,91.67c-2.88,8.78-30.91,13.09-30.91,5.32" transform="translate(-10.83 -9.09)"/><path class="cls-3" d="M80.87,84.8c12.11-7.12,39.54,14.61,53.26-4.55" transform="translate(-10.83 -9.09)"/><ellipse class="cls-3" cx="14.34" cy="95.46" rx="1.36" ry="4.25" transform="translate(-43.52 2.07) rotate(-20.62)"/><ellipse class="cls-3" cx="135.65" cy="77.49" rx="4.25" ry="1.36" transform="translate(25.69 189.14) rotate(-80.35)"/><path class="cls-4" d="M43.44,155.23v-7.09h3.33a3.23,3.23,0,0,1,1.94.5,1.63,1.63,0,0,1,.67,1.35,1.71,1.71,0,0,1-1,1.58,2.05,2.05,0,0,1-1,.22l.19-.37a2.66,2.66,0,0,1,1.07.22,1.85,1.85,0,0,1,.75.63,1.89,1.89,0,0,1,.27,1,1.64,1.64,0,0,1-.69,1.41,3.48,3.48,0,0,1-2.06.51Zm1.32-1H46.9A2.17,2.17,0,0,0,48,154a.87.87,0,0,0,.39-.79.85.85,0,0,0-.39-.77,2.16,2.16,0,0,0-1.12-.25H44.66v-1h2a2,2,0,0,0,1.06-.24.92.92,0,0,0,0-1.47,2,2,0,0,0-1.06-.24H44.76Z" transform="translate(-10.83 -9.09)"/><path class="cls-4" d="M54.19,155.33a3.08,3.08,0,0,1-2.28-.82,3.21,3.21,0,0,1-.82-2.38v-4H52.4v4a2.27,2.27,0,0,0,.47,1.59,1.77,1.77,0,0,0,1.34.5,1.73,1.73,0,0,0,1.32-.5,2.27,2.27,0,0,0,.47-1.59v-4h1.29v4a3.21,3.21,0,0,1-.82,2.38A3.08,3.08,0,0,1,54.19,155.33Z" transform="translate(-10.83 -9.09)"/><path class="cls-4" d="M61.33,155.33a5.17,5.17,0,0,1-1.58-.24,3.51,3.51,0,0,1-1.21-.61l.45-1a4,4,0,0,0,2.34.78,2.8,2.8,0,0,0,.9-.12,1.08,1.08,0,0,0,.51-.33.74.74,0,0,0,.16-.47.65.65,0,0,0-.23-.52,1.71,1.71,0,0,0-.6-.32,7.51,7.51,0,0,0-.82-.21,7.49,7.49,0,0,1-.9-.24,3.47,3.47,0,0,1-.83-.36,1.67,1.67,0,0,1-.6-.58,1.73,1.73,0,0,1-.23-.93A1.88,1.88,0,0,1,59,149.1a2.09,2.09,0,0,1,.94-.77,3.91,3.91,0,0,1,1.6-.29,5.46,5.46,0,0,1,1.27.16,3.74,3.74,0,0,1,1.09.47l-.41,1a4,4,0,0,0-1-.42,3.83,3.83,0,0,0-1-.13,2.48,2.48,0,0,0-.88.13,1.07,1.07,0,0,0-.5.35.81.81,0,0,0-.15.48.66.66,0,0,0,.22.52,1.78,1.78,0,0,0,.6.31l.83.21.9.24a4.31,4.31,0,0,1,.82.35,1.75,1.75,0,0,1,.6.58,1.69,1.69,0,0,1,.23.92,1.94,1.94,0,0,1-.31,1,2.12,2.12,0,0,1-1,.77A3.77,3.77,0,0,1,61.33,155.33Z" transform="translate(-10.83 -9.09)"/><path class="cls-4" d="M65.5,155.23v-7.09h1.32v7.09Z" transform="translate(-10.83 -9.09)"/><path class="cls-4" d="M68.73,155.23v-7.09h1.09l4.44,5.47h-.54v-5.47H75v7.09H73.94l-4.44-5.47H70v5.47Z" transform="translate(-10.83 -9.09)"/><path class="cls-4" d="M78.25,154.12h4v1.11H76.93v-7.09h5.18v1.12H78.25Zm-.1-3h3.52v1.08H78.15Z" transform="translate(-10.83 -9.09)"/><path class="cls-4" d="M85.91,155.33a5.17,5.17,0,0,1-1.58-.24,3.6,3.6,0,0,1-1.21-.61l.45-1a4,4,0,0,0,2.34.78,2.8,2.8,0,0,0,.9-.12,1.08,1.08,0,0,0,.51-.33.74.74,0,0,0,.16-.47.65.65,0,0,0-.23-.52,1.71,1.71,0,0,0-.6-.32,7.51,7.51,0,0,0-.82-.21,7.49,7.49,0,0,1-.9-.24,3.47,3.47,0,0,1-.83-.36,1.67,1.67,0,0,1-.6-.58,1.73,1.73,0,0,1-.23-.93,1.88,1.88,0,0,1,.31-1.06,2.09,2.09,0,0,1,.94-.77,3.91,3.91,0,0,1,1.6-.29,5.46,5.46,0,0,1,1.27.16,3.74,3.74,0,0,1,1.09.47l-.41,1a4,4,0,0,0-1-.42,3.82,3.82,0,0,0-1-.13,2.5,2.5,0,0,0-.89.13,1.07,1.07,0,0,0-.5.35.81.81,0,0,0-.15.48.66.66,0,0,0,.22.52,1.78,1.78,0,0,0,.6.31l.83.21.9.24a4.31,4.31,0,0,1,.82.35,1.75,1.75,0,0,1,.6.58,1.69,1.69,0,0,1,.23.92,1.94,1.94,0,0,1-.31,1,2.12,2.12,0,0,1-1,.77A3.77,3.77,0,0,1,85.91,155.33Z" transform="translate(-10.83 -9.09)"/><path class="cls-4" d="M92.28,155.33a5.17,5.17,0,0,1-1.58-.24,3.51,3.51,0,0,1-1.21-.61l.45-1a3.85,3.85,0,0,0,1,.56,4.06,4.06,0,0,0,1.29.22,2.8,2.8,0,0,0,.9-.12,1.08,1.08,0,0,0,.51-.33.81.81,0,0,0,.16-.47.65.65,0,0,0-.23-.52,1.68,1.68,0,0,0-.61-.32,7,7,0,0,0-.82-.21,7.49,7.49,0,0,1-.9-.24,3.58,3.58,0,0,1-.82-.36,1.67,1.67,0,0,1-.6-.58,1.65,1.65,0,0,1-.23-.93A1.88,1.88,0,0,1,90,149.1a2.09,2.09,0,0,1,.94-.77,3.88,3.88,0,0,1,1.6-.29,5.46,5.46,0,0,1,1.27.16,3.74,3.74,0,0,1,1.09.47l-.41,1a3.88,3.88,0,0,0-1-.42,3.7,3.7,0,0,0-1-.13,2.44,2.44,0,0,0-.88.13,1.07,1.07,0,0,0-.5.35.81.81,0,0,0-.16.48.67.67,0,0,0,.23.52,1.69,1.69,0,0,0,.6.31l.82.21c.31.07.61.15.91.24a4,4,0,0,1,.81.35,1.79,1.79,0,0,1,.61.58,1.69,1.69,0,0,1,.23.92,1.94,1.94,0,0,1-.31,1,2.18,2.18,0,0,1-1,.77A3.8,3.8,0,0,1,92.28,155.33Z" transform="translate(-10.83 -9.09)"/><path class="cls-4" d="M102.56,155.33a4.17,4.17,0,0,1-1.53-.27,3.7,3.7,0,0,1-1.21-.76,3.77,3.77,0,0,1-.8-4.07,3.43,3.43,0,0,1,.81-1.15,3.48,3.48,0,0,1,1.21-.77,4.24,4.24,0,0,1,1.55-.27,4.16,4.16,0,0,1,1.61.3,3.12,3.12,0,0,1,1.22.86l-.83.81a2.91,2.91,0,0,0-.9-.62,2.76,2.76,0,0,0-1-.19,2.87,2.87,0,0,0-1,.18,2.36,2.36,0,0,0-1.35,1.3,2.56,2.56,0,0,0-.2,1,2.5,2.5,0,0,0,.2,1,2.33,2.33,0,0,0,.53.8,2.62,2.62,0,0,0,.81.52,2.87,2.87,0,0,0,1,.18,3.1,3.1,0,0,0,1-.17,2.79,2.79,0,0,0,.94-.56l.74,1a3.64,3.64,0,0,1-1.28.67A4.67,4.67,0,0,1,102.56,155.33Zm1.52-1.07v-2.64h1.24v2.81Z" transform="translate(-10.83 -9.09)"/><path class="cls-4" d="M106.06,155.23l3.19-7.09h1.29l3.2,7.09h-1.39l-2.73-6.39h.53l-2.75,6.39Zm1.47-1.64.36-1h3.82l.35,1Z" transform="translate(-10.83 -9.09)"/><path class="cls-4" d="M114.64,155.23v-7.09h1.09l3.09,5.18h-.56l3-5.18h1.09l0,7.09h-1.27V150.1h.26l-2.58,4.33h-.59l-2.64-4.33h.31v5.13Z" transform="translate(-10.83 -9.09)"/><path class="cls-4" d="M125.63,154.12h4v1.11h-5.32v-7.09h5.17v1.12h-3.85Zm-.1-3h3.52v1.08h-3.52Z" transform="translate(-10.83 -9.09)"/><path class="cls-4" d="M133.29,155.33a5.17,5.17,0,0,1-1.58-.24,3.51,3.51,0,0,1-1.21-.61l.45-1A4,4,0,0,0,132,154a4.06,4.06,0,0,0,1.29.22,2.8,2.8,0,0,0,.9-.12,1.08,1.08,0,0,0,.51-.33.74.74,0,0,0,.16-.47.65.65,0,0,0-.23-.52,1.68,1.68,0,0,0-.61-.32,7,7,0,0,0-.82-.21,7.49,7.49,0,0,1-.9-.24,3.58,3.58,0,0,1-.82-.36,1.67,1.67,0,0,1-.6-.58,1.65,1.65,0,0,1-.23-.93,1.88,1.88,0,0,1,.31-1.06,2.09,2.09,0,0,1,.94-.77,3.91,3.91,0,0,1,1.6-.29,5.46,5.46,0,0,1,1.27.16,3.74,3.74,0,0,1,1.09.47l-.41,1a3.88,3.88,0,0,0-1-.42,3.7,3.7,0,0,0-1-.13,2.44,2.44,0,0,0-.88.13,1.07,1.07,0,0,0-.5.35.81.81,0,0,0-.16.48.67.67,0,0,0,.23.52,1.69,1.69,0,0,0,.6.31l.82.21q.47.11.9.24a4.14,4.14,0,0,1,.83.35,1.75,1.75,0,0,1,.6.58,1.69,1.69,0,0,1,.23.92,1.94,1.94,0,0,1-.31,1,2.12,2.12,0,0,1-.95.77A3.8,3.8,0,0,1,133.29,155.33Z" transform="translate(-10.83 -9.09)"/><path class="cls-4" d="M43.66,167.38v-7.51h.2V164l-.1.71.1.71v1.92Zm2.54,0a2.44,2.44,0,0,1-1.29-.34,2.37,2.37,0,0,1-.89-.94,3,3,0,0,1,0-2.75,2.41,2.41,0,0,1,.89-.93,2.62,2.62,0,0,1,2.58,0,2.46,2.46,0,0,1,.91.93,3,3,0,0,1,0,2.75,2.46,2.46,0,0,1-2.2,1.28Zm0-.19a2.34,2.34,0,0,0,1.2-.32,2.24,2.24,0,0,0,.83-.87,2.78,2.78,0,0,0,0-2.55,2.15,2.15,0,0,0-.83-.86,2.33,2.33,0,0,0-1.2-.31,2.28,2.28,0,0,0-1.2.31,2.17,2.17,0,0,0-.84.86,2.86,2.86,0,0,0,0,2.55,2.27,2.27,0,0,0,.84.87A2.29,2.29,0,0,0,46.2,167.22Z" transform="translate(-10.83 -9.09)"/><path class="cls-4" d="M52.44,167.41a2.59,2.59,0,0,1-1.34-.34,2.54,2.54,0,0,1-.93-.94,2.7,2.7,0,0,1-.34-1.37,2.93,2.93,0,0,1,.32-1.38,2.33,2.33,0,0,1,.86-.93,2.46,2.46,0,0,1,2.48,0,2.34,2.34,0,0,1,.87.92,2.81,2.81,0,0,1,.32,1.35v0H49.94v-.2h4.63l-.08.16a2.67,2.67,0,0,0-.29-1.24,2.37,2.37,0,0,0-.8-.86,2.27,2.27,0,0,0-2.29,0,2.21,2.21,0,0,0-.8.86,2.67,2.67,0,0,0-.29,1.24v0a2.52,2.52,0,0,0,.32,1.27,2.25,2.25,0,0,0,.86.87,2.53,2.53,0,0,0,2.24.11,1.94,1.94,0,0,0,.79-.6l.14.14a2.23,2.23,0,0,1-.85.64A2.64,2.64,0,0,1,52.44,167.41Z" transform="translate(-10.83 -9.09)"/><path class="cls-4" d="M58.92,169.34v-7.2h.2v1.93l-.1.71.1.71v3.85Zm2.54-1.93a2.4,2.4,0,0,1-1.28-.34,2.47,2.47,0,0,1-.9-.94,2.74,2.74,0,0,1-.33-1.36,2.82,2.82,0,0,1,.33-1.38,2.47,2.47,0,0,1,.9-.94,2.5,2.5,0,0,1,1.28-.34,2.6,2.6,0,0,1,1.3.34,2.49,2.49,0,0,1,.91.94,2.82,2.82,0,0,1,.33,1.38,2.74,2.74,0,0,1-.33,1.36,2.46,2.46,0,0,1-2.21,1.28Zm0-.19a2.38,2.38,0,0,0,1.2-.31,2.2,2.2,0,0,0,.84-.87,2.86,2.86,0,0,0,0-2.55,2.2,2.2,0,0,0-.84-.87,2.28,2.28,0,0,0-1.2-.31,2.33,2.33,0,0,0-1.2.31,2.24,2.24,0,0,0-.83.87,2.78,2.78,0,0,0,0,2.55,2.24,2.24,0,0,0,.83.87A2.44,2.44,0,0,0,61.46,167.22Z" transform="translate(-10.83 -9.09)"/><path class="cls-4" d="M65.72,167.38v-5.24h.2v1.45l0,0a2,2,0,0,1,.74-1.07,2.27,2.27,0,0,1,1.33-.38v.21h-.06a1.86,1.86,0,0,0-1.47.6,2.41,2.41,0,0,0-.52,1.64v2.82Z" transform="translate(-10.83 -9.09)"/><path class="cls-4" d="M71.44,167.41a2.6,2.6,0,0,1-1.35-.34,2.54,2.54,0,0,1-.93-.94,2.81,2.81,0,0,1-.34-1.37,2.93,2.93,0,0,1,.32-1.38,2.49,2.49,0,0,1,.86-.93,2.38,2.38,0,0,1,1.24-.34,2.33,2.33,0,0,1,2.11,1.25,2.7,2.7,0,0,1,.32,1.35v0H68.94v-.2h4.62l-.08.16a2.67,2.67,0,0,0-.29-1.24,2.29,2.29,0,0,0-.8-.86,2.27,2.27,0,0,0-2.29,0,2.29,2.29,0,0,0-.8.86,2.66,2.66,0,0,0-.28,1.24v0a2.52,2.52,0,0,0,.31,1.27,2.32,2.32,0,0,0,.86.87,2.45,2.45,0,0,0,1.25.32,2.38,2.38,0,0,0,1-.21,1.88,1.88,0,0,0,.79-.6l.14.14a2.15,2.15,0,0,1-.85.64A2.63,2.63,0,0,1,71.44,167.41Z" transform="translate(-10.83 -9.09)"/><path class="cls-4" d="M75.38,169.34v-7.2h.21v1.93l-.11.71.11.71v3.85Zm2.54-1.93a2.43,2.43,0,0,1-1.28-.34,2.47,2.47,0,0,1-.9-.94,2.74,2.74,0,0,1-.33-1.36,2.82,2.82,0,0,1,.33-1.38,2.47,2.47,0,0,1,.9-.94,2.52,2.52,0,0,1,1.28-.34,2.57,2.57,0,0,1,1.3.34,2.42,2.42,0,0,1,.91.94,2.82,2.82,0,0,1,.34,1.38,2.74,2.74,0,0,1-.34,1.36,2.42,2.42,0,0,1-.91.94A2.47,2.47,0,0,1,77.92,167.41Zm0-.19a2.38,2.38,0,0,0,1.2-.31A2.2,2.2,0,0,0,80,166a2.86,2.86,0,0,0,0-2.55,2.2,2.2,0,0,0-.84-.87,2.28,2.28,0,0,0-1.2-.31,2.33,2.33,0,0,0-1.2.31,2.24,2.24,0,0,0-.83.87,2.86,2.86,0,0,0,0,2.55,2.24,2.24,0,0,0,.83.87A2.44,2.44,0,0,0,77.92,167.22Z" transform="translate(-10.83 -9.09)"/><path class="cls-4" d="M83.52,167.41a2.52,2.52,0,0,1-1-.18,1.37,1.37,0,0,1-.63-.52,1.34,1.34,0,0,1-.22-.77,1.37,1.37,0,0,1,.18-.69,1.29,1.29,0,0,1,.58-.52,2.57,2.57,0,0,1,1.1-.2h2.1v.2H83.52a1.89,1.89,0,0,0-1.27.34,1.1,1.1,0,0,0-.38.86,1.16,1.16,0,0,0,.44.94,1.89,1.89,0,0,0,1.21.35,2.1,2.1,0,0,0,1.25-.35,2.17,2.17,0,0,0,.75-1l.1.13a2,2,0,0,1-.74,1A2.26,2.26,0,0,1,83.52,167.41Zm2,0V164a1.64,1.64,0,0,0-.43-1.24,1.71,1.71,0,0,0-1.23-.41,2.73,2.73,0,0,0-1.08.2A2.62,2.62,0,0,0,82,163l-.14-.15a3,3,0,0,1,.91-.56,3.11,3.11,0,0,1,1.13-.22,1.93,1.93,0,0,1,1.39.47,1.83,1.83,0,0,1,.48,1.37v3.43Z" transform="translate(-10.83 -9.09)"/><path class="cls-4" d="M88,167.38v-5.24h.2v1.45l0,0a2,2,0,0,1,.74-1.07,2.28,2.28,0,0,1,1.34-.38v.21h-.07a1.84,1.84,0,0,0-1.46.6,2.41,2.41,0,0,0-.53,1.64v2.82Z" transform="translate(-10.83 -9.09)"/><path class="cls-4" d="M93.71,167.41a2.6,2.6,0,0,1-1.35-.34,2.54,2.54,0,0,1-.93-.94,2.8,2.8,0,0,1-.33-1.37,2.92,2.92,0,0,1,.31-1.38,2.49,2.49,0,0,1,.86-.93,2.41,2.41,0,0,1,1.24-.34,2.35,2.35,0,0,1,1.24.33,2.43,2.43,0,0,1,.88.92,2.8,2.8,0,0,1,.31,1.35v0H91.21v-.2h4.62l-.08.16a2.67,2.67,0,0,0-.29-1.24,2.29,2.29,0,0,0-.8-.86,2.08,2.08,0,0,0-1.15-.31,2.12,2.12,0,0,0-1.14.31,2.18,2.18,0,0,0-.79.86,2.55,2.55,0,0,0-.29,1.24v0A2.52,2.52,0,0,0,91.6,166a2.32,2.32,0,0,0,.86.87,2.47,2.47,0,0,0,1.25.32,2.38,2.38,0,0,0,1-.21,1.88,1.88,0,0,0,.79-.6l.14.14a2.15,2.15,0,0,1-.85.64A2.63,2.63,0,0,1,93.71,167.41Z" transform="translate(-10.83 -9.09)"/><path class="cls-4" d="M99.58,167.41a2.46,2.46,0,0,1-2.21-1.28,3,3,0,0,1,0-2.75,2.54,2.54,0,0,1,.91-.93,2.6,2.6,0,0,1,1.3-.34,2.53,2.53,0,0,1,1.29.34,2.56,2.56,0,0,1,.89.93,3,3,0,0,1,0,2.75,2.52,2.52,0,0,1-.89.94A2.44,2.44,0,0,1,99.58,167.41Zm0-.19a2.34,2.34,0,0,0,1.2-.32,2.24,2.24,0,0,0,.83-.87,2.78,2.78,0,0,0,0-2.55,2.15,2.15,0,0,0-.83-.86,2.33,2.33,0,0,0-1.2-.31,2.31,2.31,0,0,0-1.2.31,2.15,2.15,0,0,0-.83.86,2.78,2.78,0,0,0,0,2.55,2.24,2.24,0,0,0,.83.87A2.32,2.32,0,0,0,99.58,167.22Zm2.34.16v-1.92l.1-.71-.1-.71v-4.17h.2v7.51Z" transform="translate(-10.83 -9.09)"/><path class="cls-4" d="M106.05,162.34v-.2h3v.2Zm2.28,5.07a1.21,1.21,0,0,1-1-.36,1.33,1.33,0,0,1-.32-.93V161h.2v5.07a1.16,1.16,0,0,0,.28.85,1,1,0,0,0,.8.3,1.21,1.21,0,0,0,.87-.33l.14.14a1.1,1.1,0,0,1-.46.29A1.87,1.87,0,0,1,108.33,167.41Z" transform="translate(-10.83 -9.09)"/><path class="cls-4" d="M112.63,167.41a2.45,2.45,0,0,1-1.3-.34,2.49,2.49,0,0,1-.91-.94,3,3,0,0,1,0-2.75,2.48,2.48,0,0,1,2.21-1.27,2.57,2.57,0,0,1,1.3.34,2.46,2.46,0,0,1,.91.93,3,3,0,0,1,0,2.75,2.42,2.42,0,0,1-.91.94A2.47,2.47,0,0,1,112.63,167.41Zm0-.19a2.34,2.34,0,0,0,1.2-.32,2.24,2.24,0,0,0,.83-.87,2.78,2.78,0,0,0,0-2.55,2.15,2.15,0,0,0-.83-.86,2.33,2.33,0,0,0-1.2-.31,2.31,2.31,0,0,0-1.2.31,2.15,2.15,0,0,0-.83.86,2.78,2.78,0,0,0,0,2.55,2.24,2.24,0,0,0,.83.87A2.32,2.32,0,0,0,112.63,167.22Z" transform="translate(-10.83 -9.09)"/><path class="cls-4" d="M119.41,167.38v-5.24h.2v1.45l0,0a2,2,0,0,1,.75-1.07,2.25,2.25,0,0,1,1.33-.38v.21h-.06a1.85,1.85,0,0,0-1.47.6,2.41,2.41,0,0,0-.53,1.64v2.82Z" transform="translate(-10.83 -9.09)"/><path class="cls-4" d="M123.29,160.7a.27.27,0,0,1-.26-.27.22.22,0,0,1,.08-.18.25.25,0,0,1,.18-.08.29.29,0,0,1,.19.08.24.24,0,0,1,.07.18.28.28,0,0,1-.07.19A.29.29,0,0,1,123.29,160.7Zm-.1,6.68v-5.24h.2v5.24Z" transform="translate(-10.83 -9.09)"/><path class="cls-4" d="M126.92,167.41a3.58,3.58,0,0,1-1.19-.2,2.17,2.17,0,0,1-.85-.52l.12-.16a2.54,2.54,0,0,0,.79.48,2.92,2.92,0,0,0,1.13.21,2.14,2.14,0,0,0,1.34-.33,1,1,0,0,0,.4-.84.85.85,0,0,0-.19-.59,1.22,1.22,0,0,0-.51-.33,4.45,4.45,0,0,0-.7-.19l-.77-.15a3.69,3.69,0,0,1-.71-.23,1.29,1.29,0,0,1-.51-.41,1.11,1.11,0,0,1-.19-.69,1.18,1.18,0,0,1,.19-.66,1.33,1.33,0,0,1,.61-.49,2.42,2.42,0,0,1,1.05-.2,3.11,3.11,0,0,1,1,.15,2.22,2.22,0,0,1,.77.39l-.12.16a2.16,2.16,0,0,0-.74-.38,3.15,3.15,0,0,0-.87-.12,1.93,1.93,0,0,0-1.25.33,1,1,0,0,0-.39.82.9.9,0,0,0,.2.61,1.06,1.06,0,0,0,.51.35,4.15,4.15,0,0,0,.7.2c.26,0,.51.09.76.15a3.38,3.38,0,0,1,.7.22,1.13,1.13,0,0,1,.51.39,1,1,0,0,1,.2.67,1.17,1.17,0,0,1-.22.71,1.41,1.41,0,0,1-.64.48A3.08,3.08,0,0,1,126.92,167.41Z" transform="translate(-10.83 -9.09)"/><path class="cls-4" d="M130.41,167.38v-7.51h.2v7.51Zm.13-1.56v-.24l3.76-3.44h.3l-2.28,2.09-.16.12Zm4,1.56-2.45-3.08.16-.12,2.55,3.2Z" transform="translate(-10.83 -9.09)"/></svg>
