<svg id="Layer_1" data-name="Layer 1" xmlns="http://www.w3.org/2000/svg" viewBox="0 0 288.65 47.22"><defs><style>.cls-1,.cls-3,.cls-4,.cls-5,.cls-6{fill:#333;}.cls-2{fill:none;}.cls-2,.cls-3,.cls-4,.cls-5,.cls-6{stroke:#333;}.cls-2,.cls-3{stroke-miterlimit:10;}.cls-3,.cls-4,.cls-5,.cls-6{stroke-width:0.5px;}.cls-4{stroke-miterlimit:10;}.cls-5{stroke-miterlimit:10;}.cls-6{stroke-miterlimit:10;}</style></defs><path class="cls-1" d="M43.52,20.75V2h8.84a8.52,8.52,0,0,1,5.13,1.32,4.24,4.24,0,0,1,1.77,3.56,4.61,4.61,0,0,1-.7,2.57A4.69,4.69,0,0,1,56.69,11a5.56,5.56,0,0,1-2.53.58l.48-1a6.91,6.91,0,0,1,2.85.58,4.66,4.66,0,0,1,2,1.68,4.82,4.82,0,0,1,.73,2.74,4.41,4.41,0,0,1-1.84,3.76,9.29,9.29,0,0,1-5.47,1.34ZM47,18h5.67a5.71,5.71,0,0,0,3-.64,2.25,2.25,0,0,0,1.05-2.07,2.23,2.23,0,0,0-1.05-2.05,5.6,5.6,0,0,0-3-.66H46.75V9.88H52a5.15,5.15,0,0,0,2.8-.65,2.15,2.15,0,0,0,1-1.93,2.18,2.18,0,0,0-1-2A5.15,5.15,0,0,0,52,4.69H47Z" transform="translate(-0.75 -1.69)"/><path class="cls-1" d="M72,21a8.18,8.18,0,0,1-6-2.18q-2.19-2.18-2.19-6.31V2h3.49V12.43a6,6,0,0,0,1.25,4.21A4.64,4.64,0,0,0,72.06,18a4.59,4.59,0,0,0,3.52-1.32,6,6,0,0,0,1.24-4.21V2h3.43V12.53q0,4.14-2.19,6.31A8.19,8.19,0,0,1,72,21Z" transform="translate(-0.75 -1.69)"/><path class="cls-1" d="M91,21a14,14,0,0,1-4.2-.63,9.46,9.46,0,0,1-3.21-1.63l1.21-2.71a9.91,9.91,0,0,0,2.79,1.48,10.24,10.24,0,0,0,3.41.59,7.41,7.41,0,0,0,2.39-.32,2.92,2.92,0,0,0,1.35-.88,2,2,0,0,0,.43-1.24,1.74,1.74,0,0,0-.62-1.39,4.64,4.64,0,0,0-1.6-.83c-.65-.21-1.38-.39-2.17-.56s-1.6-.38-2.39-.63a10.36,10.36,0,0,1-2.19-1,4.54,4.54,0,0,1-1.6-1.54A4.63,4.63,0,0,1,84,7.3a5.07,5.07,0,0,1,.82-2.81,5.58,5.58,0,0,1,2.49-2,10.31,10.31,0,0,1,4.26-.76,13.16,13.16,0,0,1,3.35.43,9.43,9.43,0,0,1,2.9,1.23l-1.1,2.71A10.34,10.34,0,0,0,94.08,5a10,10,0,0,0-2.58-.36,6.39,6.39,0,0,0-2.33.35,2.79,2.79,0,0,0-1.33.92,2.13,2.13,0,0,0-.42,1.28A1.75,1.75,0,0,0,88,8.52a4.41,4.41,0,0,0,1.59.82c.65.2,1.38.38,2.19.56s1.6.39,2.39.63a11.19,11.19,0,0,1,2.17.94A4.69,4.69,0,0,1,98,13a4.51,4.51,0,0,1,.6,2.43,5,5,0,0,1-.82,2.78,5.59,5.59,0,0,1-2.51,2A10.35,10.35,0,0,1,91,21Z" transform="translate(-0.75 -1.69)"/><path class="cls-1" d="M102,20.75V2h3.49V20.75Z" transform="translate(-0.75 -1.69)"/><path class="cls-1" d="M110.59,20.75V2h2.87l11.79,14.49h-1.42V2h3.43V20.75h-2.87L112.63,6.25h1.42v14.5Z" transform="translate(-0.75 -1.69)"/><path class="cls-1" d="M135.83,17.8h10.6v2.95H132.34V2h13.72v3H135.83Zm-.27-8h9.34v2.87h-9.34Z" transform="translate(-0.75 -1.69)"/><path class="cls-1" d="M156.15,21a13.91,13.91,0,0,1-4.2-.63,9.46,9.46,0,0,1-3.21-1.63L150,16.05a9.91,9.91,0,0,0,2.79,1.48,10.24,10.24,0,0,0,3.41.59,7.46,7.46,0,0,0,2.39-.32,2.83,2.83,0,0,0,1.34-.88,1.93,1.93,0,0,0,.43-1.24,1.73,1.73,0,0,0-.61-1.39,4.73,4.73,0,0,0-1.6-.83,22.17,22.17,0,0,0-2.18-.56c-.79-.17-1.59-.38-2.38-.63a10.36,10.36,0,0,1-2.19-1,4.46,4.46,0,0,1-1.6-1.54,4.63,4.63,0,0,1-.6-2.47A5.14,5.14,0,0,1,150,4.49a5.67,5.67,0,0,1,2.5-2,10.31,10.31,0,0,1,4.26-.76,13.21,13.21,0,0,1,3.35.43A9.43,9.43,0,0,1,163,3.35l-1.1,2.71A10.34,10.34,0,0,0,159.27,5a10,10,0,0,0-2.58-.36,6.48,6.48,0,0,0-2.34.35,2.89,2.89,0,0,0-1.33.92,2.19,2.19,0,0,0-.41,1.28,1.75,1.75,0,0,0,.6,1.38,4.33,4.33,0,0,0,1.59.82c.65.2,1.38.38,2.18.56s1.61.39,2.39.63a11,11,0,0,1,2.18.94,4.78,4.78,0,0,1,1.6,1.53,4.51,4.51,0,0,1,.6,2.43,5,5,0,0,1-.82,2.78,5.59,5.59,0,0,1-2.51,2A10.39,10.39,0,0,1,156.15,21Z" transform="translate(-0.75 -1.69)"/><path class="cls-1" d="M173,21a13.87,13.87,0,0,1-4.2-.63,9.37,9.37,0,0,1-3.21-1.63l1.21-2.71a9.91,9.91,0,0,0,2.79,1.48,10.24,10.24,0,0,0,3.41.59,7.5,7.5,0,0,0,2.39-.32,2.83,2.83,0,0,0,1.34-.88,1.93,1.93,0,0,0,.43-1.24,1.71,1.71,0,0,0-.62-1.39,4.59,4.59,0,0,0-1.59-.83c-.66-.21-1.38-.39-2.18-.56s-1.59-.38-2.39-.63a10.83,10.83,0,0,1-2.19-1,4.51,4.51,0,0,1-1.59-1.54A4.55,4.55,0,0,1,166,7.3a5.15,5.15,0,0,1,.82-2.81,5.67,5.67,0,0,1,2.5-2,10.3,10.3,0,0,1,4.25-.76,13.23,13.23,0,0,1,3.36.43,9.43,9.43,0,0,1,2.9,1.23l-1.1,2.71A10.25,10.25,0,0,0,176.15,5a9.88,9.88,0,0,0-2.57-.36,6.48,6.48,0,0,0-2.34.35,2.84,2.84,0,0,0-1.33.92,2.12,2.12,0,0,0-.41,1.28,1.75,1.75,0,0,0,.6,1.38,4.28,4.28,0,0,0,1.58.82c.66.2,1.39.38,2.19.56s1.6.39,2.39.63a11.28,11.28,0,0,1,2.18.94A4.66,4.66,0,0,1,180,13a4.43,4.43,0,0,1,.61,2.43,5,5,0,0,1-.82,2.78,5.64,5.64,0,0,1-2.51,2A10.39,10.39,0,0,1,173,21Z" transform="translate(-0.75 -1.69)"/><path class="cls-1" d="M200.29,21a11.2,11.2,0,0,1-4-.71,9.64,9.64,0,0,1-3.21-2,9.4,9.4,0,0,1-2.12-3.06,9.68,9.68,0,0,1-.75-3.87,9.66,9.66,0,0,1,.75-3.86,9,9,0,0,1,2.14-3.06,9.53,9.53,0,0,1,3.22-2,12.13,12.13,0,0,1,8.37.07,8.52,8.52,0,0,1,3.24,2.28l-2.2,2.15a6.93,6.93,0,0,0-5.18-2.15,7.65,7.65,0,0,0-2.76.48,6.37,6.37,0,0,0-2.16,1.37,6.3,6.3,0,0,0-1.42,2.09,6.82,6.82,0,0,0-.51,2.66,6.84,6.84,0,0,0,.51,2.65,6.26,6.26,0,0,0,3.57,3.47,7.3,7.3,0,0,0,2.74.49,8.22,8.22,0,0,0,2.7-.45A7.17,7.17,0,0,0,205.66,16l2,2.61a9.93,9.93,0,0,1-3.38,1.78A13,13,0,0,1,200.29,21Zm4.06-2.85v-7h3.27v7.46Z" transform="translate(-0.75 -1.69)"/><path class="cls-1" d="M209.58,20.75,218,2h3.43L230,20.75h-3.68L219,3.81h1.4l-7.28,16.94Zm3.89-4.35,1-2.74h10.12l.94,2.74Z" transform="translate(-0.75 -1.69)"/><path class="cls-1" d="M232.35,20.75V2h2.87l8.22,13.72h-1.51L250,2h2.88l.05,18.79h-3.36V7.14h.68l-6.82,11.49h-1.59l-7-11.49h.81V20.75Z" transform="translate(-0.75 -1.69)"/><path class="cls-1" d="M261.48,17.8h10.6v2.95H258V2h13.72v3H261.48Zm-.27-8h9.34v2.87h-9.34Z" transform="translate(-0.75 -1.69)"/><path class="cls-1" d="M281.8,21a13.87,13.87,0,0,1-4.2-.63,9.46,9.46,0,0,1-3.21-1.63l1.21-2.71a9.91,9.91,0,0,0,2.79,1.48,10.24,10.24,0,0,0,3.41.59,7.46,7.46,0,0,0,2.39-.32,2.92,2.92,0,0,0,1.35-.88,2,2,0,0,0,.42-1.24,1.73,1.73,0,0,0-.61-1.39,4.64,4.64,0,0,0-1.6-.83c-.65-.21-1.38-.39-2.17-.56s-1.6-.38-2.39-.63a10.36,10.36,0,0,1-2.19-1,4.46,4.46,0,0,1-1.6-1.54,4.63,4.63,0,0,1-.6-2.47,5.14,5.14,0,0,1,.81-2.81,5.67,5.67,0,0,1,2.5-2,10.31,10.31,0,0,1,4.26-.76,13.21,13.21,0,0,1,3.35.43,9.43,9.43,0,0,1,2.9,1.23l-1.1,2.71A10.34,10.34,0,0,0,284.92,5a10,10,0,0,0-2.58-.36,6.48,6.48,0,0,0-2.34.35,2.89,2.89,0,0,0-1.33.92,2.19,2.19,0,0,0-.41,1.28,1.75,1.75,0,0,0,.6,1.38,4.33,4.33,0,0,0,1.59.82c.65.2,1.38.38,2.19.56s1.6.39,2.39.63a11.19,11.19,0,0,1,2.17.94A4.78,4.78,0,0,1,288.8,13a4.51,4.51,0,0,1,.6,2.43,5,5,0,0,1-.82,2.78,5.59,5.59,0,0,1-2.51,2A10.39,10.39,0,0,1,281.8,21Z" transform="translate(-0.75 -1.69)"/><path class="cls-1" d="M43,44.91V30h1.43v7.49l-.2,2.14.14,2.13v3.18Zm5.46.1a5,5,0,0,1-2.5-.63,4.57,4.57,0,0,1-1.75-1.84,7,7,0,0,1,0-5.85A4.54,4.54,0,0,1,46,34.87a4.94,4.94,0,0,1,2.48-.63,5.43,5.43,0,0,1,2.71.68A4.85,4.85,0,0,1,53,36.8a6.09,6.09,0,0,1,0,5.63,5,5,0,0,1-1.88,1.9A5.32,5.32,0,0,1,48.45,45Zm-.1-1.26a3.86,3.86,0,0,0,2-.52,3.71,3.71,0,0,0,1.41-1.45,4.32,4.32,0,0,0,.53-2.16,4.37,4.37,0,0,0-.53-2.18A3.9,3.9,0,0,0,50.36,36a4.24,4.24,0,0,0-4,0,3.75,3.75,0,0,0-1.41,1.44,4.37,4.37,0,0,0-.52,2.18,4.32,4.32,0,0,0,.52,2.16,3.58,3.58,0,0,0,1.41,1.45A3.9,3.9,0,0,0,48.35,43.75Z" transform="translate(-0.75 -1.69)"/><path class="cls-1" d="M61.14,45a5.89,5.89,0,0,1-2.9-.69,5,5,0,0,1-2-1.91,5.48,5.48,0,0,1-.7-2.79,5.58,5.58,0,0,1,.67-2.78,4.92,4.92,0,0,1,1.86-1.9,5,5,0,0,1,2.64-.7,5.15,5.15,0,0,1,2.65.68,4.8,4.8,0,0,1,1.82,1.89,5.7,5.7,0,0,1,.67,2.81,1.48,1.48,0,0,1,0,.21,1.69,1.69,0,0,0,0,.23h-9.2V39H65.1l-.56.43a4.17,4.17,0,0,0-.49-2.05A3.76,3.76,0,0,0,62.71,36a3.83,3.83,0,0,0-2-.5,3.88,3.88,0,0,0-2,.5,3.52,3.52,0,0,0-1.35,1.41A4.4,4.4,0,0,0,57,39.46v.22a4.2,4.2,0,0,0,.53,2.12A3.73,3.73,0,0,0,59,43.23a4.49,4.49,0,0,0,2.19.52A4.69,4.69,0,0,0,63,43.4a3.6,3.6,0,0,0,1.44-1l.8.92a4.39,4.39,0,0,1-1.76,1.29A5.85,5.85,0,0,1,61.14,45Z" transform="translate(-0.75 -1.69)"/><path class="cls-1" d="M74.08,48.82V34.34h1.37v3.18l-.14,2.12.2,2.13v7ZM79.54,45a4.94,4.94,0,0,1-2.48-.63,4.64,4.64,0,0,1-1.76-1.83,7,7,0,0,1,0-5.86A4.46,4.46,0,0,1,77,34.87a5,5,0,0,1,2.5-.63,5.43,5.43,0,0,1,2.71.68,4.81,4.81,0,0,1,1.88,1.89,6.09,6.09,0,0,1,0,5.63,5,5,0,0,1-1.88,1.89A5.32,5.32,0,0,1,79.54,45Zm-.1-1.26a3.86,3.86,0,0,0,2-.52,3.71,3.71,0,0,0,1.41-1.45,4.67,4.67,0,0,0,0-4.32,3.8,3.8,0,0,0-3.42-2,4,4,0,0,0-2,.52A3.78,3.78,0,0,0,76,37.46a4.75,4.75,0,0,0,0,4.32,3.58,3.58,0,0,0,1.41,1.45A3.9,3.9,0,0,0,79.44,43.75Z" transform="translate(-0.75 -1.69)"/><path class="cls-1" d="M87.74,44.91V34.34h1.37v2.88l-.15-.5a3.51,3.51,0,0,1,1.49-1.84,4.89,4.89,0,0,1,2.6-.64v1.39h-.32a3.4,3.4,0,0,0-2.62,1,4.09,4.09,0,0,0-.94,2.89v5.39Z" transform="translate(-0.75 -1.69)"/><path class="cls-1" d="M100,45a5.89,5.89,0,0,1-2.9-.69,5,5,0,0,1-2-1.91,5.49,5.49,0,0,1-.71-2.79,5.59,5.59,0,0,1,.68-2.78A4.9,4.9,0,0,1,97,34.94a5,5,0,0,1,2.65-.7,5.2,5.2,0,0,1,2.65.68,4.87,4.87,0,0,1,1.82,1.89,5.8,5.8,0,0,1,.66,2.81,1.48,1.48,0,0,1,0,.21,1.69,1.69,0,0,0,0,.23h-9.2V39H104l-.57.43a4.17,4.17,0,0,0-.49-2.05,3.6,3.6,0,0,0-3.29-1.9,3.89,3.89,0,0,0-2,.5,3.66,3.66,0,0,0-1.35,1.41,4.4,4.4,0,0,0-.48,2.08v.22a4.2,4.2,0,0,0,.53,2.12,3.76,3.76,0,0,0,1.5,1.43,4.42,4.42,0,0,0,2.18.52,4.69,4.69,0,0,0,1.8-.35,3.6,3.6,0,0,0,1.44-1l.81.92a4.45,4.45,0,0,1-1.76,1.29A5.9,5.9,0,0,1,100,45Z" transform="translate(-0.75 -1.69)"/><path class="cls-1" d="M107.71,48.82V34.34h1.37v3.18l-.14,2.12.2,2.13v7ZM113.17,45a4.94,4.94,0,0,1-2.48-.63,4.57,4.57,0,0,1-1.76-1.83,6,6,0,0,1-.66-2.93,6.1,6.1,0,0,1,.65-2.93,4.39,4.39,0,0,1,1.75-1.82,5,5,0,0,1,2.5-.63,5.43,5.43,0,0,1,2.71.68,4.88,4.88,0,0,1,1.88,1.89,6.17,6.17,0,0,1,0,5.63,5,5,0,0,1-1.88,1.89A5.32,5.32,0,0,1,113.17,45Zm-.1-1.26a3.86,3.86,0,0,0,2-.52,3.71,3.71,0,0,0,1.41-1.45,4.75,4.75,0,0,0,0-4.32,3.8,3.8,0,0,0-3.42-2,4.06,4.06,0,0,0-2,.52,3.93,3.93,0,0,0-1.41,1.45,4.83,4.83,0,0,0,0,4.32A3.71,3.71,0,0,0,111,43.23,4,4,0,0,0,113.07,43.75Z" transform="translate(-0.75 -1.69)"/><path class="cls-1" d="M124.28,45a5,5,0,0,1-2.06-.39,3.09,3.09,0,0,1-1.34-1.08,2.84,2.84,0,0,1-.46-1.61,2.94,2.94,0,0,1,.39-1.5,2.7,2.7,0,0,1,1.29-1.08,5.76,5.76,0,0,1,2.41-.42h3.64V40h-3.6a3.21,3.21,0,0,0-2.13.54,1.76,1.76,0,0,0-.59,1.35,1.72,1.72,0,0,0,.7,1.45,3.13,3.13,0,0,0,2,.55,3.8,3.8,0,0,0,2.08-.56,3.2,3.2,0,0,0,1.28-1.6l.32,1a3.34,3.34,0,0,1-1.4,1.67A4.6,4.6,0,0,1,124.28,45Zm3.65-.1V42.58l-.06-.38V38.29a2.74,2.74,0,0,0-.76-2.08,3.13,3.13,0,0,0-2.24-.72,5.57,5.57,0,0,0-2,.34,5,5,0,0,0-1.57.91l-.64-1.07a5.72,5.72,0,0,1,1.93-1.06,7.8,7.8,0,0,1,2.38-.37,4.52,4.52,0,0,1,3.17,1,4,4,0,0,1,1.12,3.09v6.56Z" transform="translate(-0.75 -1.69)"/><path class="cls-1" d="M133.18,44.91V34.34h1.37v2.88l-.14-.5a3.46,3.46,0,0,1,1.49-1.84,4.89,4.89,0,0,1,2.6-.64v1.39h-.32a3.39,3.39,0,0,0-2.62,1,4.09,4.09,0,0,0-.95,2.89v5.39Z" transform="translate(-0.75 -1.69)"/><path class="cls-1" d="M145.49,45a5.89,5.89,0,0,1-2.9-.69,5.07,5.07,0,0,1-2-1.91,6,6,0,0,1,0-5.57,4.92,4.92,0,0,1,1.86-1.9,5,5,0,0,1,2.65-.7,5.14,5.14,0,0,1,2.64.68,4.89,4.89,0,0,1,1.83,1.89,5.8,5.8,0,0,1,.66,2.81,1.48,1.48,0,0,1,0,.21,1.69,1.69,0,0,0,0,.23H141V39h8.43l-.56.43a4.17,4.17,0,0,0-.49-2.05,3.76,3.76,0,0,0-1.34-1.4,3.82,3.82,0,0,0-1.95-.5,3.89,3.89,0,0,0-2,.5,3.52,3.52,0,0,0-1.35,1.41,4.4,4.4,0,0,0-.48,2.08v.22a4.2,4.2,0,0,0,.53,2.12,3.8,3.8,0,0,0,1.49,1.43,4.49,4.49,0,0,0,2.19.52,4.69,4.69,0,0,0,1.8-.35,3.6,3.6,0,0,0,1.44-1l.81.92a4.42,4.42,0,0,1-1.77,1.29A5.85,5.85,0,0,1,145.49,45Z" transform="translate(-0.75 -1.69)"/><path class="cls-1" d="M157.37,45a5.32,5.32,0,0,1-2.71-.68,4.9,4.9,0,0,1-1.88-1.9,6.09,6.09,0,0,1,0-5.63,4.79,4.79,0,0,1,1.88-1.88,5.43,5.43,0,0,1,2.71-.68,4.89,4.89,0,0,1,2.48.63,4.48,4.48,0,0,1,1.76,1.82,7,7,0,0,1,0,5.85,4.55,4.55,0,0,1-1.74,1.84A5,5,0,0,1,157.37,45Zm.1-1.26a3.9,3.9,0,0,0,2-.52,3.58,3.58,0,0,0,1.41-1.45,4.42,4.42,0,0,0,.52-2.16,4.48,4.48,0,0,0-.52-2.18A3.75,3.75,0,0,0,159.49,36a4,4,0,0,0-2-.51,3.9,3.9,0,0,0-2,.51,3.75,3.75,0,0,0-1.41,1.44,4.37,4.37,0,0,0-.53,2.18,4.32,4.32,0,0,0,.53,2.16,3.58,3.58,0,0,0,1.41,1.45A3.81,3.81,0,0,0,157.47,43.75Zm4,1.16V41.73l.14-2.13-.2-2.14V30h1.43V44.91Z" transform="translate(-0.75 -1.69)"/><path class="cls-1" d="M170.44,35.53V34.34H177v1.19Zm5,9.48a2.79,2.79,0,0,1-3.1-3.08V32h1.43v9.84a2,2,0,0,0,.47,1.43,1.77,1.77,0,0,0,1.36.51,2.26,2.26,0,0,0,1.57-.55l.51,1a2.81,2.81,0,0,1-1,.56A4.19,4.19,0,0,1,175.43,45Z" transform="translate(-0.75 -1.69)"/><path class="cls-1" d="M184.19,45a5.49,5.49,0,0,1-2.76-.69,5.1,5.1,0,0,1-1.91-1.92,5.5,5.5,0,0,1-.71-2.78,5.44,5.44,0,0,1,.71-2.8,5,5,0,0,1,1.91-1.89,5.89,5.89,0,0,1,5.55,0,5,5,0,0,1,1.91,1.89,5.5,5.5,0,0,1,.7,2.79,5.58,5.58,0,0,1-.7,2.79A5,5,0,0,1,187,44.32,5.59,5.59,0,0,1,184.19,45Zm0-1.26a3.91,3.91,0,0,0,2-.52,3.62,3.62,0,0,0,1.4-1.45,4.42,4.42,0,0,0,.52-2.16,4.48,4.48,0,0,0-.52-2.18,3.8,3.8,0,0,0-1.4-1.44,4.22,4.22,0,0,0-4,0,3.82,3.82,0,0,0-1.41,1.44,4.37,4.37,0,0,0-.53,2.18,4.32,4.32,0,0,0,.53,2.16,3.69,3.69,0,0,0,1.4,1.45A3.8,3.8,0,0,0,184.19,43.75Z" transform="translate(-0.75 -1.69)"/><path class="cls-1" d="M196.13,35.53V34.34h6.54v1.19Zm5,9.48a2.8,2.8,0,0,1-3.1-3.08V32h1.43v9.84a2,2,0,0,0,.48,1.43,1.74,1.74,0,0,0,1.36.51,2.28,2.28,0,0,0,1.57-.55l.5,1a2.66,2.66,0,0,1-1,.56A4.14,4.14,0,0,1,201.12,45Z" transform="translate(-0.75 -1.69)"/><path class="cls-1" d="M208.94,45a5.06,5.06,0,0,1-2.07-.39,3.09,3.09,0,0,1-1.34-1.08,2.84,2.84,0,0,1-.46-1.61,2.94,2.94,0,0,1,.39-1.5,2.7,2.7,0,0,1,1.29-1.08,5.76,5.76,0,0,1,2.41-.42h3.64V40h-3.6a3.21,3.21,0,0,0-2.13.54,1.8,1.8,0,0,0-.59,1.35,1.72,1.72,0,0,0,.7,1.45,3.13,3.13,0,0,0,2,.55,3.8,3.8,0,0,0,2.08-.56,3.15,3.15,0,0,0,1.28-1.6l.32,1a3.34,3.34,0,0,1-1.4,1.67A4.59,4.59,0,0,1,208.94,45Zm3.64-.1V42.58l-.06-.38V38.29a2.78,2.78,0,0,0-.75-2.08,3.17,3.17,0,0,0-2.25-.72,5.52,5.52,0,0,0-2,.34,4.91,4.91,0,0,0-1.57.91l-.65-1.07a5.67,5.67,0,0,1,1.94-1.06,7.73,7.73,0,0,1,2.37-.37,4.52,4.52,0,0,1,3.17,1A4,4,0,0,1,214,38.35v6.56Z" transform="translate(-0.75 -1.69)"/><path class="cls-1" d="M217.84,44.91V30h1.43V44.91ZM219,42.18l0-1.84,6.59-6h1.75l-4.65,4.45-.81.69ZM226,44.91l-4.41-5.49.93-1.11,5.24,6.6Z" transform="translate(-0.75 -1.69)"/><path class="cls-1" d="M234,45a5.89,5.89,0,0,1-2.9-.69,5.07,5.07,0,0,1-2-1.91,5.48,5.48,0,0,1-.7-2.79,5.58,5.58,0,0,1,.67-2.78,4.92,4.92,0,0,1,1.86-1.9,5,5,0,0,1,2.64-.7,5.15,5.15,0,0,1,2.65.68,4.8,4.8,0,0,1,1.82,1.89,5.7,5.7,0,0,1,.67,2.81,1.48,1.48,0,0,1,0,.21,1.69,1.69,0,0,0,0,.23h-9.2V39H238l-.56.43a4.17,4.17,0,0,0-.49-2.05,3.76,3.76,0,0,0-1.34-1.4,3.83,3.83,0,0,0-2-.5,3.88,3.88,0,0,0-2,.5,3.52,3.52,0,0,0-1.35,1.41,4.4,4.4,0,0,0-.48,2.08v.22a4.2,4.2,0,0,0,.53,2.12,3.8,3.8,0,0,0,1.49,1.43,4.49,4.49,0,0,0,2.19.52,4.69,4.69,0,0,0,1.8-.35,3.6,3.6,0,0,0,1.44-1l.8.92a4.39,4.39,0,0,1-1.76,1.29A5.85,5.85,0,0,1,234,45Z" transform="translate(-0.75 -1.69)"/><path class="cls-1" d="M247,44.91V34.34h1.37v2.88l-.14-.5a3.46,3.46,0,0,1,1.49-1.84,4.89,4.89,0,0,1,2.6-.64v1.39H252a3.39,3.39,0,0,0-2.62,1,4.09,4.09,0,0,0-1,2.89v5.39Z" transform="translate(-0.75 -1.69)"/><path class="cls-1" d="M255.59,32a1,1,0,0,1-.74-1.75,1,1,0,0,1,.74-.29,1.09,1.09,0,0,1,.75.28.94.94,0,0,1,.3.71,1,1,0,0,1-.29.74A1,1,0,0,1,255.59,32Zm-.72,12.9V34.34h1.43V44.91Z" transform="translate(-0.75 -1.69)"/><path class="cls-1" d="M263.12,45a8,8,0,0,1-2.47-.37,5.54,5.54,0,0,1-1.84-.93l.65-1.13a6,6,0,0,0,1.65.83,6.24,6.24,0,0,0,2.11.36,3.8,3.8,0,0,0,2.18-.48,1.46,1.46,0,0,0,.66-1.26,1.16,1.16,0,0,0-.37-.91,2.39,2.39,0,0,0-1-.5,10.7,10.7,0,0,0-1.34-.3c-.5-.08-1-.17-1.48-.28a5.43,5.43,0,0,1-1.34-.47,2.64,2.64,0,0,1-1-.86,2.49,2.49,0,0,1-.37-1.45,2.66,2.66,0,0,1,.48-1.55,3.32,3.32,0,0,1,1.42-1.08,6,6,0,0,1,2.29-.39,8.08,8.08,0,0,1,2.05.27,5.51,5.51,0,0,1,1.69.72l-.62,1.15a4.71,4.71,0,0,0-1.51-.7,6.41,6.41,0,0,0-1.61-.21,3.59,3.59,0,0,0-2.11.49,1.5,1.5,0,0,0-.67,1.26,1.23,1.23,0,0,0,.37,1,2.59,2.59,0,0,0,1,.53,9.6,9.6,0,0,0,1.35.31q.72.12,1.47.3a6.6,6.6,0,0,1,1.34.46,2.49,2.49,0,0,1,1,.82,2.41,2.41,0,0,1,.37,1.4,2.55,2.55,0,0,1-.51,1.6,3.29,3.29,0,0,1-1.49,1A6.63,6.63,0,0,1,263.12,45Z" transform="translate(-0.75 -1.69)"/><path class="cls-1" d="M270.11,44.91V30h1.43V44.91Zm1.13-2.73,0-1.84,6.58-6h1.76L275,38.79l-.8.69Zm7.07,2.73-4.41-5.49.92-1.11,5.24,6.6Z" transform="translate(-0.75 -1.69)"/><path class="cls-1" d="M284.73,45a8.09,8.09,0,0,1-2.48-.37,5.39,5.39,0,0,1-1.83-.93l.65-1.13a5.9,5.9,0,0,0,1.65.83,6.2,6.2,0,0,0,2.11.36,3.82,3.82,0,0,0,2.18-.48,1.46,1.46,0,0,0,.66-1.26,1.16,1.16,0,0,0-.37-.91,2.45,2.45,0,0,0-1-.5,10.48,10.48,0,0,0-1.35-.3c-.5-.08-1-.17-1.48-.28a5.58,5.58,0,0,1-1.34-.47,2.61,2.61,0,0,1-1-.86,2.49,2.49,0,0,1-.38-1.45,2.6,2.6,0,0,1,.49-1.55,3.26,3.26,0,0,1,1.42-1.08,5.9,5.9,0,0,1,2.28-.39,8.09,8.09,0,0,1,2.06.27,5.62,5.62,0,0,1,1.69.72l-.63,1.15a4.61,4.61,0,0,0-1.51-.7,6.3,6.3,0,0,0-1.61-.21,3.58,3.58,0,0,0-2.1.49,1.51,1.51,0,0,0-.68,1.26,1.23,1.23,0,0,0,.38,1,2.47,2.47,0,0,0,1,.53,9.6,9.6,0,0,0,1.35.31q.74.12,1.47.3a6.69,6.69,0,0,1,1.35.46,2.49,2.49,0,0,1,1,.82,2.41,2.41,0,0,1,.37,1.4,2.55,2.55,0,0,1-.51,1.6,3.35,3.35,0,0,1-1.49,1A6.63,6.63,0,0,1,284.73,45Z" transform="translate(-0.75 -1.69)"/><circle class="cls-2" cx="19.11" cy="16.93" r="16.37"/><path class="cls-3" d="M23.59,20.63c-.13-3.35-2.31-5.71-2.78-8-.21-1,.06-1.17.06-2.24a4.94,4.94,0,0,0-9.87,0h0c0,2,2.11,2,2.59,3.81s-1.44,4.48-1.34,6.94c.19,4.56,2.88,8.15,6,8S23.79,25.19,23.59,20.63Z" transform="translate(-0.75 -1.69)"/><path class="cls-2" d="M14.76,27.59c-15,9.67-10.4,10.24-10.4,17.73" transform="translate(-0.75 -1.69)"/><line class="cls-2" x1="21.26" y1="25.11" x2="27.27" y2="31.12"/><ellipse class="cls-4" cx="3.01" cy="46.42" rx="2.87" ry="0.92" transform="translate(-34.62 16.38) rotate(-48.73)"/><path class="cls-2" d="M13.14,18.3c-.84,2.58-9.28,3.79-9.65,2.41" transform="translate(-0.75 -1.69)"/><path class="cls-2" d="M22.5,16.6c3.55-2.09,9.58,5.69,13.6.07" transform="translate(-0.75 -1.69)"/><ellipse class="cls-5" cx="3.3" cy="20.03" rx="0.81" ry="2.52" transform="translate(-5.95 -0.09) rotate(-15.41)"/><ellipse class="cls-6" cx="35.92" cy="15.07" rx="0.79" ry="2.46" transform="translate(-3.67 10.47) rotate(-18.48)"/></svg>
